<svg width="18" height="18" viewBox="0 0 18 18" fill="none" xmlns="http://www.w3.org/2000/svg">
<path d="M8.9915 0.666626C4.3915 0.666626 0.666504 4.39996 0.666504 8.99996C0.666504 13.6 4.3915 17.3333 8.9915 17.3333C13.5998 17.3333 17.3332 13.6 17.3332 8.99996C17.3332 4.39996 13.5998 0.666626 8.9915 0.666626ZM14.7665 5.66663H12.3082C12.0415 4.62496 11.6582 3.62496 11.1582 2.69996C12.6915 3.22496 13.9665 4.29163 14.7665 5.66663ZM8.99984 2.36663C9.6915 3.36663 10.2332 4.47496 10.5915 5.66663H7.40817C7.7665 4.47496 8.30817 3.36663 8.99984 2.36663ZM2.54984 10.6666C2.4165 10.1333 2.33317 9.57496 2.33317 8.99996C2.33317 8.42496 2.4165 7.86663 2.54984 7.33329H5.3665C5.29984 7.88329 5.24984 8.43329 5.24984 8.99996C5.24984 9.56663 5.29984 10.1166 5.3665 10.6666H2.54984ZM3.23317 12.3333H5.6915C5.95817 13.375 6.3415 14.375 6.8415 15.3C5.30817 14.775 4.03317 13.7166 3.23317 12.3333ZM5.6915 5.66663H3.23317C4.03317 4.28329 5.30817 3.22496 6.8415 2.69996C6.3415 3.62496 5.95817 4.62496 5.6915 5.66663ZM8.99984 15.6333C8.30817 14.6333 7.7665 13.525 7.40817 12.3333H10.5915C10.2332 13.525 9.6915 14.6333 8.99984 15.6333ZM10.9498 10.6666H7.04984C6.97484 10.1166 6.9165 9.56663 6.9165 8.99996C6.9165 8.43329 6.97484 7.87496 7.04984 7.33329H10.9498C11.0248 7.87496 11.0832 8.43329 11.0832 8.99996C11.0832 9.56663 11.0248 10.1166 10.9498 10.6666ZM11.1582 15.3C11.6582 14.375 12.0415 13.375 12.3082 12.3333H14.7665C13.9665 13.7083 12.6915 14.775 11.1582 15.3ZM12.6332 10.6666C12.6998 10.1166 12.7498 9.56663 12.7498 8.99996C12.7498 8.43329 12.6998 7.88329 12.6332 7.33329H15.4498C15.5832 7.86663 15.6665 8.42496 15.6665 8.99996C15.6665 9.57496 15.5832 10.1333 15.4498 10.6666H12.6332Z" fill="#8B96A5"/>
</svg>
