<svg width="20" height="16" viewBox="0 0 20 16" fill="none" xmlns="http://www.w3.org/2000/svg">
<path d="M18.3335 5.90834H14.3418L10.6918 0.441675C10.5335 0.208342 10.2668 0.0916748 10.0002 0.0916748C9.7335 0.0916748 9.46683 0.208342 9.3085 0.450008L5.6585 5.90834H1.66683C1.2085 5.90834 0.833496 6.28334 0.833496 6.74167C0.833496 6.81667 0.841829 6.89167 0.866829 6.96667L2.9835 14.6917C3.17516 15.3917 3.81683 15.9083 4.5835 15.9083H15.4168C16.1835 15.9083 16.8252 15.3917 17.0252 14.6917L19.1418 6.96667L19.1668 6.74167C19.1668 6.28334 18.7918 5.90834 18.3335 5.90834ZM10.0002 2.40834L12.3335 5.90834H7.66683L10.0002 2.40834ZM15.4168 14.2417L4.59183 14.25L2.7585 7.57501H17.2502L15.4168 14.2417ZM10.0002 9.24167C9.0835 9.24167 8.3335 9.99167 8.3335 10.9083C8.3335 11.825 9.0835 12.575 10.0002 12.575C10.9168 12.575 11.6668 11.825 11.6668 10.9083C11.6668 9.99167 10.9168 9.24167 10.0002 9.24167Z" fill="#8B96A5"/>
</svg>
